<svg width="102" height="100" viewBox="0 0 102 100" fill="none" xmlns="http://www.w3.org/2000/svg">
<path d="M50.7679 0.00943446C50.7679 0.00943446 80.7785 -1.31478 96.6842 28.2587C88.2816 28.2587 48.2165 28.2587 48.2165 28.2587C48.2165 28.2587 39.0631 27.9633 31.2602 38.8532C29.0095 43.4141 26.6092 48.1227 29.3101 57.3915C25.409 50.9188 8.60229 22.2266 8.60229 22.2266C8.60229 22.2266 20.4574 1.186 50.7679 0.00943446Z" fill="#E16B5A"/>
<path d="M95.1222 75.0953C95.1222 75.0953 81.2836 101.238 47.2104 99.9523C51.4137 92.8187 71.4503 58.7992 71.4503 58.7992C71.4503 58.7992 76.2874 51.1734 70.5754 39.1031C67.6717 34.9109 58.8754 30.5172 49.3379 28.175C57.008 28.1 96.5888 28.1797 96.5888 28.1797C96.5888 28.1797 109.241 48.7695 95.1222 75.0953Z" fill="#FFD464"/>
<path d="M6.62756 75.2937C6.62756 75.2937 -9.54212 50.4687 8.63177 22.1781C12.8319 29.3148 32.8573 63.3406 32.8573 63.3406C32.8573 63.3406 37.1711 71.2609 50.6892 72.4453C55.8421 72.0765 61.2025 71.7633 68.0399 64.8375C64.2701 71.3867 47.3274 99.9992 47.3274 99.9992C47.3274 99.9992 22.8171 100.448 6.62756 75.2937Z" fill="#74B340"/>
<ellipse cx="50.6464" cy="50.4062" rx="23.0643" ry="22.6562" fill="white"/>
<ellipse cx="50.6383" cy="50.4062" rx="18.2924" ry="17.9688" fill="#2995CC"/>
<path d="M50.643 32.4414C50.2787 32.4414 49.9184 32.4547 49.5605 32.475C59.1585 33.0258 66.7697 40.8437 66.7697 50.4094C66.7697 59.9766 59.1585 67.7953 49.5605 68.3461C49.9192 68.3656 50.2795 68.3797 50.643 68.3797C60.7444 68.3797 68.9354 60.3336 68.9354 50.4094C68.9354 40.4867 60.7444 32.4414 50.643 32.4414Z" fill="#268CBF"/>
</svg>
